<?xml version="1.0" encoding="UTF-8" standalone="no"?>
<!-- Created with Inkscape (http://www.inkscape.org/) -->

<svg
   width="86.355453mm"
   height="81.104591mm"
   viewBox="0 0 86.355454 81.104592"
   version="1.1"
   id="svg1"
   xml:space="preserve"
   sodipodi:docname="tech-imgs.svg"
   inkscape:version="1.3.2 (091e20e, 2023-11-25, custom)"
   xmlns:inkscape="http://www.inkscape.org/namespaces/inkscape"
   xmlns:sodipodi="http://sodipodi.sourceforge.net/DTD/sodipodi-0.dtd"
   xmlns:xlink="http://www.w3.org/1999/xlink"
   xmlns="http://www.w3.org/2000/svg"
   xmlns:svg="http://www.w3.org/2000/svg"><sodipodi:namedview
     id="namedview1"
     pagecolor="#505050"
     bordercolor="#eeeeee"
     borderopacity="1"
     inkscape:showpageshadow="0"
     inkscape:pageopacity="0"
     inkscape:pagecheckerboard="0"
     inkscape:deskcolor="#505050"
     inkscape:document-units="mm"
     inkscape:zoom="0.14849876"
     inkscape:cx="1070.716"
     inkscape:cy="1154.8918"
     inkscape:window-width="1360"
     inkscape:window-height="697"
     inkscape:window-x="-8"
     inkscape:window-y="-8"
     inkscape:window-maximized="1"
     inkscape:current-layer="layer1" /><defs
     id="defs1"><linearGradient
       id="linearGradient14"
       inkscape:collect="always"><stop
         style="stop-color:#ce8958;stop-opacity:1;"
         offset="0"
         id="stop14" /><stop
         style="stop-color:#002e00;stop-opacity:1;"
         offset="0.18075114"
         id="stop16" /><stop
         style="stop-color:#006a00;stop-opacity:0.32941177;"
         offset="0.63615024"
         id="stop17" /><stop
         style="stop-color:#ce8958;stop-opacity:1;"
         offset="0.88497651"
         id="stop15" /></linearGradient><linearGradient
       inkscape:collect="always"
       xlink:href="#linearGradient14"
       id="linearGradient15"
       x1="-1050.1805"
       y1="-418.40958"
       x2="-996.00623"
       y2="-418.40958"
       gradientUnits="userSpaceOnUse" /><filter
       inkscape:collect="always"
       style="color-interpolation-filters:sRGB"
       id="filter17"
       x="-0.01626602"
       y="-0.15543111"
       width="1.032532"
       height="1.3108622"><feGaussianBlur
         inkscape:collect="always"
         stdDeviation="0.36716649"
         id="feGaussianBlur17" /></filter></defs><g
     inkscape:label="Camada 1"
     inkscape:groupmode="layer"
     id="layer1"
     transform="translate(1068.2169,495.79826)"><g
       id="g17"><path
         style="fill:#1b6f3e;fill-opacity:1;stroke:none;stroke-width:0.106555;stroke-linecap:round;stroke-linejoin:round"
         d="m -981.86147,-459.51824 c -3.44375,2.72194 -6.52603,5.68414 -11.29605,7.13157 -5.78525,1.06208 -11.92938,-0.0191 -17.93858,-3.63596 10.5793,-1.92428 21.38865,-4.94363 29.23463,-3.49561 z"
         id="path1-27-84"
         sodipodi:nodetypes="cccc" /><path
         style="fill:#1c6c41;fill-opacity:1;stroke:none;stroke-width:0.101446;stroke-linecap:round;stroke-linejoin:round"
         d="m -982.02488,-460.39352 c 1.22037,-2.85474 -19.64032,-13.70228 -28.92622,3.59359 11.08578,-3.17423 21.91753,-4.49023 28.92622,-3.59359 z"
         id="path2-9-42"
         sodipodi:nodetypes="ccc" /><path
         style="fill:#1b6f3e;fill-opacity:1;stroke:none;stroke-width:0.0924205;stroke-linecap:round;stroke-linejoin:round"
         d="m -1015.3223,-495.79826 c -2.8866,2.44767 -5.9491,4.65146 -7.9025,8.39253 -1.7587,4.64205 -1.229,9.03167 1.0996,14.56597 3.2003,-8.49137 6.9606,-16.22686 6.8029,-22.9585 z"
         id="path1-27"
         sodipodi:nodetypes="cccc" /><path
         style="fill:#1c6c41;fill-opacity:1;stroke:none;stroke-width:0.0879892;stroke-linecap:round;stroke-linejoin:round"
         d="m -1014.575,-495.53045 c 1.7968,0.26802 8.0507,18.91527 -7.1552,22.72966 4.3728,-8.72302 6.9467,-16.77632 7.1552,-22.72966 z"
         id="path2-9"
         sodipodi:nodetypes="ccc" /><path
         style="fill:#1b6f3e;fill-opacity:1;stroke:none;stroke-width:0.0924205;stroke-linecap:round;stroke-linejoin:round"
         d="m -990.31397,-487.15885 c 0.3884,3.76467 1.07256,7.47512 -0.10787,11.52702 -1.9447,4.56726 -5.36594,7.36806 -10.87766,9.74946 3.56933,-8.34294 6.21132,-16.52814 10.98553,-21.27648 z"
         id="path1-27-8"
         sodipodi:nodetypes="cccc" /><path
         style="fill:#1c6c41;fill-opacity:1;stroke:none;stroke-width:0.0879892;stroke-linecap:round;stroke-linejoin:round"
         d="m -991.03862,-487.48296 c -1.48212,-1.05056 -18.90458,8.07553 -10.57288,21.35524 2.88363,-9.32183 6.60174,-16.915 10.57288,-21.35524 z"
         id="path2-9-4"
         sodipodi:nodetypes="ccc" /><path
         style="fill:#1b6f3e;fill-opacity:1;stroke:none;stroke-width:0.114342;stroke-linecap:round;stroke-linejoin:round"
         d="m -1001.9856,-474.62589 c -0.3365,4.28865 -1.9214,9.04553 -4.4074,13.35637 -5.2718,4.50574 -7.9319,6.75213 -15.7945,8.36631 5.2933,-7.63516 12.7833,-17.31797 20.2019,-21.72268 z"
         id="path1-27-3"
         sodipodi:nodetypes="cccc" /><path
         style="fill:#1c6c41;fill-opacity:1;stroke:none;stroke-width:0.108859;stroke-linecap:round;stroke-linejoin:round"
         d="m -1004.0999,-474.45888 c -3.8493,-4.00045 -27.1218,4.32874 -18.3679,21.61518 3.4927,-12.00134 13.5336,-16.51126 18.3679,-21.61518 z"
         id="path2-9-6"
         sodipodi:nodetypes="ccc" /><path
         style="fill:#1b6f3e;fill-opacity:1;stroke:none;stroke-width:0.108198;stroke-linecap:round;stroke-linejoin:round"
         d="m -1024.2895,-454.24048 c 0.6757,-5.04101 2.2753,-8.28012 1.3923,-13.89888 -1.6137,-6.40763 -4.8483,-10.6062 -10.2207,-14.49042 2.9653,11.70662 4.3781,21.39517 8.8284,28.3893 z"
         id="path1-9"
         sodipodi:nodetypes="cccc" /><path
         style="fill:#1c6c41;fill-opacity:1;stroke:none;stroke-width:0.108198;stroke-linecap:round;stroke-linejoin:round"
         d="m -1024.8363,-453.61455 c -5.1089,-1.39733 -20.6488,-12.64115 -8.7302,-29.20452 1.1006,13.85201 5.3929,22.34198 8.7302,29.20452 z"
         id="path2-4"
         sodipodi:nodetypes="ccc" /><path
         style="fill:#1b6f3e;fill-opacity:1;stroke:none;stroke-width:0.1;stroke-linecap:round;stroke-linejoin:round"
         d="m -1051.5979,-478.09577 c -0.5653,4.24852 -1.4332,8.4214 -0.3937,13.07112 1.8048,5.27074 5.2093,8.61026 10.7876,11.57502 -3.3146,-9.62864 -5.6799,-19.03389 -10.3939,-24.64614 z"
         id="path1"
         sodipodi:nodetypes="cccc" /><path
         style="fill:#1c6c41;fill-opacity:1;stroke:none;stroke-width:0.1;stroke-linecap:round;stroke-linejoin:round"
         d="m -1051.2829,-478.17451 c 6.6852,3.232 21.9495,10.22318 10.8337,25.12419 -3.0343,-11.0212 -6.3319,-19.5537 -10.8337,-25.12419 z"
         id="path2"
         sodipodi:nodetypes="ccc" /><path
         style="fill:#1b6f3e;fill-opacity:1;stroke:none;stroke-width:0.0880513;stroke-linecap:round;stroke-linejoin:round"
         d="m -1068.2169,-457.25636 c 3.4572,-1.63902 6.7561,-3.50087 11.0532,-3.95823 5.0649,-0.0135 8.974,1.80023 13.2357,5.47041 -9.2582,0.0105 -18.0314,0.72395 -24.2889,-1.51218 z"
         id="path1-2"
         sodipodi:nodetypes="cccc" /><path
         style="fill:#1c6c41;fill-opacity:1;stroke:none;stroke-width:0.0880513;stroke-linecap:round;stroke-linejoin:round"
         d="m -1068.1867,-456.98054 c 4.8328,4.48788 15.5354,14.84322 24.8337,1.73348 -10.3619,0.62435 -18.6775,0.34325 -24.8337,-1.73348 z"
         id="path2-8"
         sodipodi:nodetypes="ccc" /><path
         style="fill:#ce8958;fill-opacity:1;stroke:none;stroke-width:0.1;stroke-linecap:round;stroke-linejoin:round"
         d="m -1043.0612,-423.52778 c 0.5226,-2.13962 0.9797,-4.29234 0.9843,-6.53555 0.4593,-0.63956 0.9187,-0.25559 1.378,0.0394 0.041,2.64589 0.4459,5.1708 0.7874,7.71667 0.7732,0.44934 1.0407,0.077 1.4173,-0.11811 -0.031,-5.50592 -0.3022,-11.56362 -0.1125,-16.78951 0.379,-5.67492 2.7776,-8.66116 5.0505,-12.14077 l 0.7795,-1.47546 c -3.6804,1.18672 -7.478,7.13556 -8.6492,13.6576 -0.7896,0.77256 -0.9048,0.15398 -1.2616,0.0672 -1.7204,-3.72121 -3.5107,-7.38764 -6.9042,-9.79945 l -1.5033,0.27839 c 2.5229,2.63381 4.5129,5.33901 5.348,10.24767 1.0295,4.13902 1.2887,9.25852 1.1664,14.86346 0.5064,0.28305 1.0129,0.43328 1.5193,-0.0115 z"
         id="path3"
         sodipodi:nodetypes="cccccccccccccccc" /><path
         style="fill:#ce8958;fill-opacity:1;stroke:none;stroke-width:0.105753;stroke-linecap:round;stroke-linejoin:round"
         d="m -1025.1416,-422.49663 c 0.593,-2.09078 0.6546,-6.43716 1.3424,-9.01292 0.5446,-0.64191 0.8399,-0.37465 1.3366,-0.0786 0.4108,2.51251 0.7929,6.23298 0.8356,8.84735 0.8386,0.45099 1.1952,0.19541 1.6248,-4.3e-4 0.487,-5.44626 0.6207,-11.98351 1.0513,-17.24478 0.7136,-5.69572 3.6049,-9.74603 7.012,-12.70945 l -0.1113,-0.64436 c -3.5097,0.58617 -8.5619,6.77065 -10.2017,13.3166 -0.9195,0.77539 -1.0161,0.15454 -1.4092,0.0674 -0.8743,-4.14496 -4.091,-11.12447 -9.1982,-12.82755 l -0.8308,1.42594 c 2.8929,0.60487 5.0354,2.1374 6.5825,12.13089 0.1448,4.31219 0.4693,11.25692 0.2219,16.84712 z"
         id="path3-4"
         sodipodi:nodetypes="ccccccccccccccc" /><ellipse
         style="fill:#ce8958;fill-opacity:1;stroke:none;stroke-width:0.109883;stroke-linecap:round;stroke-linejoin:round"
         id="path4"
         cx="-1042.5392"
         cy="-444.77603"
         rx="1.8095602"
         ry="3.006654" /><path
         style="fill:#ce8958;fill-opacity:1;stroke:none;stroke-width:0.1;stroke-linecap:round;stroke-linejoin:round"
         d="m -1002.3617,-424.05385 c -0.5226,-2.13962 -0.9797,-4.29234 -0.9843,-6.53555 -0.4593,-0.63956 -0.9187,-0.25559 -1.378,0.0394 -0.041,2.64589 -0.4459,5.1708 -0.7874,7.71667 -0.7732,0.44934 -1.0407,0.077 -1.4173,-0.11811 0.031,-5.50592 0.2235,-11.52425 0.034,-16.75014 -0.1766,-7.56485 -3.3682,-9.29109 -5.6411,-12.7707 l 0.5405,-0.99544 c 4.4515,3.01061 6.8273,7.2461 7.9985,13.76814 0.7896,0.77256 0.9048,0.15398 1.2616,0.0672 1.7204,-3.72121 3.51073,-7.38764 6.90423,-9.79945 l 1.5033,0.27839 c -2.5229,2.63381 -4.5129,5.33901 -5.348,10.24767 -1.02953,4.13902 -1.28873,9.25852 -1.16643,14.86346 -0.5064,0.28305 -1.0129,0.43328 -1.5193,-0.0115 z"
         id="path3-3"
         sodipodi:nodetypes="cccccccccccccccc" /><ellipse
         style="fill:#ce8958;fill-opacity:1;stroke:none;stroke-width:0.109883;stroke-linecap:round;stroke-linejoin:round"
         id="path4-2"
         cx="1002.8837"
         cy="-445.30209"
         rx="1.8095602"
         ry="3.006654"
         transform="scale(-1,1)" /><ellipse
         style="fill:#ce8958;fill-opacity:1;stroke:none;stroke-width:0.115082;stroke-linecap:round;stroke-linejoin:round"
         id="path4-4"
         cx="-1022.7121"
         cy="-447.29187"
         rx="2.1436329"
         ry="2.7839389" /><path
         style="opacity:0.796345;fill:url(#linearGradient15);fill-opacity:1;stroke:none;stroke-width:0.1;stroke-linecap:round;stroke-linejoin:round;filter:url(#filter17)"
         d="m -1050.1805,-415.57488 16.0633,-2.99218 9.5318,-0.68212 0.9408,0.4459 27.63836,1.81105 -6.29936,-2.51973 -19.5279,-0.47244 v -0.47246 l -11.8113,-0.78741 z"
         id="path13"
         sodipodi:nodetypes="cccccccccc" /></g></g></svg>
